<svg width="416" height="118" viewBox="0 0 416 118" fill="none" xmlns="http://www.w3.org/2000/svg">
<path d="M226.512 0.845703V61.5166C226.512 64.2969 227.159 66.3726 228.454 67.7437C229.787 69.0767 231.444 69.7432 233.424 69.7432C235.748 69.7432 237.69 68.8481 239.251 67.0581L240.908 68.3721C238.89 70.7334 236.395 71.9141 233.424 71.9141C230.873 71.9141 228.721 71.0381 226.969 69.2861C225.255 67.4961 224.398 64.9062 224.398 61.5166V0.845703H226.512ZM292.061 43.7495C290.767 39.103 288.272 35.3706 284.578 32.5522C280.921 29.7339 276.732 28.3247 272.009 28.3247C268.201 28.3247 264.716 29.2578 261.555 31.124C258.432 32.9902 255.937 35.4849 254.071 38.6079C252.204 41.731 251.271 45.2158 251.271 49.0625C251.271 52.8711 252.204 56.356 254.071 59.5171C255.937 62.6401 258.432 65.1348 261.555 67.001C264.716 68.8672 268.201 69.8003 272.009 69.8003C276.732 69.8003 280.921 68.3911 284.578 65.5728C288.272 62.7163 290.767 58.9839 292.061 54.3755V43.7495ZM292.061 60.0312C290.043 63.6875 287.263 66.582 283.721 68.7148C280.179 70.8477 276.275 71.9141 272.009 71.9141C267.82 71.9141 263.992 70.8857 260.526 68.8291C257.06 66.7725 254.299 64.0112 252.243 60.5454C250.186 57.0796 249.158 53.252 249.158 49.0625C249.158 44.835 250.186 40.9883 252.243 37.5225C254.299 34.0566 257.06 31.2954 260.526 29.2388C263.992 27.1821 267.82 26.1538 272.009 26.1538C276.275 26.1538 280.179 27.2393 283.721 29.4102C287.263 31.543 290.043 34.4185 292.061 38.0366V27.0679H294.175V61.5166C294.175 64.2969 294.823 66.3726 296.118 67.7437C297.451 69.0767 299.107 69.7432 301.088 69.7432C303.411 69.7432 305.353 68.8481 306.915 67.0581L308.572 68.3721C306.553 70.7334 304.058 71.9141 301.088 71.9141C298.536 71.9141 296.384 71.0381 294.632 69.2861C292.918 67.4961 292.061 64.9062 292.061 61.5166V60.0312ZM325.619 54.3755C326.914 58.9839 329.408 62.7163 333.103 65.5728C336.797 68.3911 340.987 69.8003 345.671 69.8003C349.48 69.8003 352.946 68.8672 356.069 67.001C359.23 65.1348 361.743 62.6401 363.61 59.5171C365.476 56.356 366.409 52.8711 366.409 49.0625C366.409 45.2158 365.476 41.731 363.61 38.6079C361.743 35.4849 359.23 32.9902 356.069 31.124C352.946 29.2578 349.48 28.3247 345.671 28.3247C340.987 28.3247 336.797 29.7339 333.103 32.5522C329.408 35.3706 326.914 39.103 325.619 43.7495V54.3755ZM325.619 0.845703V38.0366C327.676 34.4185 330.475 31.543 334.017 29.4102C337.559 27.2393 341.444 26.1538 345.671 26.1538C349.899 26.1538 353.726 27.1821 357.154 29.2388C360.62 31.2954 363.381 34.0566 365.438 37.5225C367.494 40.9883 368.523 44.835 368.523 49.0625C368.523 53.252 367.494 57.0796 365.438 60.5454C363.381 64.0112 360.62 66.7725 357.154 68.8291C353.726 70.8857 349.899 71.9141 345.671 71.9141C341.444 71.9141 337.559 70.8477 334.017 68.7148C330.475 66.582 327.676 63.6875 325.619 60.0312V71H323.505V0.845703H325.619ZM402.137 48.0913C410.935 49.5005 415.391 53.3281 415.506 59.5742C415.353 63.7256 413.849 66.8296 410.992 68.8862C408.136 70.9048 404.746 71.9141 400.823 71.9141C397.967 71.9141 395.168 71.0762 392.425 69.4004C389.683 67.6865 387.817 65.4014 386.827 62.5449L388.826 61.9165C389.702 64.3159 391.321 66.2202 393.682 67.6294C396.044 69.0386 398.424 69.7432 400.823 69.7432C404.175 69.7432 407.089 68.9243 409.564 67.2866C412.04 65.6489 413.316 63.0591 413.392 59.5171C413.392 54.4517 408.993 51.2334 400.195 49.8623C391.397 48.1104 386.941 44.3018 386.827 38.4365C386.979 34.2852 388.484 31.2002 391.34 29.1816C394.196 27.125 397.377 26.0967 400.881 26.0967C403.737 26.0967 406.536 26.9536 409.279 28.6675C412.021 30.3433 413.887 32.6094 414.877 35.4658L412.878 36.0942C412.002 33.6948 410.383 31.7905 408.022 30.3813C405.66 28.9722 403.28 28.2676 400.881 28.2676C397.948 28.2676 395.244 29.0864 392.768 30.7241C390.293 32.3618 389.017 34.9517 388.941 38.4937C388.941 43.2925 393.34 46.4917 402.137 48.0913Z" fill="#EA4747"/>
<path d="M266.814 93.748C266.711 93.5867 266.616 93.3667 266.528 93.088C266.44 92.8093 266.396 92.516 266.396 92.208C266.396 91.636 266.521 91.2253 266.77 90.976C267.034 90.7267 267.371 90.602 267.782 90.602H277.374C277.477 90.7633 277.572 90.9833 277.66 91.262C277.748 91.5407 277.792 91.834 277.792 92.142C277.792 92.714 277.66 93.1247 277.396 93.374C277.147 93.6233 276.817 93.748 276.406 93.748H273.964V103.912C273.803 103.956 273.546 104 273.194 104.044C272.857 104.088 272.519 104.11 272.182 104.11C271.845 104.11 271.544 104.081 271.28 104.022C271.031 103.978 270.818 103.89 270.642 103.758C270.466 103.626 270.334 103.443 270.246 103.208C270.158 102.973 270.114 102.665 270.114 102.284V93.748H266.814ZM285.528 103.978C285.381 104.022 285.146 104.066 284.824 104.11C284.516 104.154 284.193 104.176 283.856 104.176C283.533 104.176 283.24 104.154 282.976 104.11C282.726 104.066 282.514 103.978 282.338 103.846C282.162 103.714 282.022 103.538 281.92 103.318C281.832 103.083 281.788 102.783 281.788 102.416V95.816C281.788 95.4787 281.846 95.1927 281.964 94.958C282.096 94.7087 282.279 94.4887 282.514 94.298C282.748 94.1073 283.034 93.9387 283.372 93.792C283.724 93.6307 284.098 93.4913 284.494 93.374C284.89 93.2567 285.3 93.1687 285.726 93.11C286.151 93.0367 286.576 93 287.002 93C287.706 93 288.263 93.1393 288.674 93.418C289.084 93.682 289.29 94.122 289.29 94.738C289.29 94.9433 289.26 95.1487 289.202 95.354C289.143 95.5447 289.07 95.7207 288.982 95.882C288.674 95.882 288.358 95.8967 288.036 95.926C287.713 95.9553 287.398 95.9993 287.09 96.058C286.782 96.1167 286.488 96.1827 286.21 96.256C285.946 96.3147 285.718 96.388 285.528 96.476V103.978ZM298.386 101.624C298.636 101.624 298.907 101.602 299.2 101.558C299.508 101.499 299.736 101.426 299.882 101.338V99.578L298.298 99.71C297.888 99.7393 297.55 99.8273 297.286 99.974C297.022 100.121 296.89 100.341 296.89 100.634C296.89 100.927 297 101.169 297.22 101.36C297.455 101.536 297.844 101.624 298.386 101.624ZM298.21 92.978C299.002 92.978 299.721 93.0587 300.366 93.22C301.026 93.3813 301.584 93.6307 302.038 93.968C302.508 94.2907 302.867 94.7087 303.116 95.222C303.366 95.7207 303.49 96.3147 303.49 97.004V101.932C303.49 102.313 303.38 102.629 303.16 102.878C302.955 103.113 302.706 103.318 302.412 103.494C301.459 104.066 300.117 104.352 298.386 104.352C297.609 104.352 296.905 104.279 296.274 104.132C295.658 103.985 295.123 103.765 294.668 103.472C294.228 103.179 293.884 102.805 293.634 102.35C293.4 101.895 293.282 101.367 293.282 100.766C293.282 99.754 293.583 98.9767 294.184 98.434C294.786 97.8913 295.717 97.554 296.978 97.422L299.86 97.114V96.96C299.86 96.5347 299.67 96.234 299.288 96.058C298.922 95.8673 298.386 95.772 297.682 95.772C297.125 95.772 296.582 95.8307 296.054 95.948C295.526 96.0653 295.05 96.212 294.624 96.388C294.434 96.256 294.272 96.058 294.14 95.794C294.008 95.5153 293.942 95.2293 293.942 94.936C293.942 94.5547 294.03 94.254 294.206 94.034C294.397 93.7993 294.683 93.6013 295.064 93.44C295.49 93.2787 295.988 93.1613 296.56 93.088C297.147 93.0147 297.697 92.978 298.21 92.978ZM308.989 90.338C308.989 89.7807 309.173 89.3113 309.539 88.93C309.921 88.5487 310.419 88.358 311.035 88.358C311.651 88.358 312.143 88.5487 312.509 88.93C312.891 89.3113 313.081 89.7807 313.081 90.338C313.081 90.8953 312.891 91.3647 312.509 91.746C312.143 92.1273 311.651 92.318 311.035 92.318C310.419 92.318 309.921 92.1273 309.539 91.746C309.173 91.3647 308.989 90.8953 308.989 90.338ZM312.905 103.978C312.744 104.007 312.502 104.044 312.179 104.088C311.871 104.147 311.556 104.176 311.233 104.176C310.911 104.176 310.617 104.154 310.353 104.11C310.104 104.066 309.891 103.978 309.715 103.846C309.539 103.714 309.4 103.538 309.297 103.318C309.209 103.083 309.165 102.783 309.165 102.416V93.462C309.327 93.4327 309.561 93.396 309.869 93.352C310.192 93.2933 310.515 93.264 310.837 93.264C311.16 93.264 311.446 93.286 311.695 93.33C311.959 93.374 312.179 93.462 312.355 93.594C312.531 93.726 312.663 93.9093 312.751 94.144C312.854 94.364 312.905 94.6573 312.905 95.024V103.978ZM325.362 97.224C325.362 96.7693 325.23 96.4393 324.966 96.234C324.717 96.014 324.372 95.904 323.932 95.904C323.639 95.904 323.346 95.9407 323.052 96.014C322.774 96.0873 322.532 96.1973 322.326 96.344V103.978C322.18 104.022 321.945 104.066 321.622 104.11C321.314 104.154 320.992 104.176 320.654 104.176C320.332 104.176 320.038 104.154 319.774 104.11C319.525 104.066 319.312 103.978 319.136 103.846C318.96 103.714 318.821 103.538 318.718 103.318C318.63 103.083 318.586 102.783 318.586 102.416V95.816C318.586 95.42 318.667 95.0973 318.828 94.848C319.004 94.5987 319.239 94.3713 319.532 94.166C320.031 93.814 320.654 93.528 321.402 93.308C322.165 93.088 323.008 92.978 323.932 92.978C325.59 92.978 326.866 93.3447 327.76 94.078C328.655 94.7967 329.102 95.8013 329.102 97.092V103.978C328.956 104.022 328.721 104.066 328.398 104.11C328.09 104.154 327.768 104.176 327.43 104.176C327.108 104.176 326.814 104.154 326.55 104.11C326.301 104.066 326.088 103.978 325.912 103.846C325.736 103.714 325.597 103.538 325.494 103.318C325.406 103.083 325.362 102.783 325.362 102.416V97.224ZM334.624 90.338C334.624 89.7807 334.808 89.3113 335.174 88.93C335.556 88.5487 336.054 88.358 336.67 88.358C337.286 88.358 337.778 88.5487 338.144 88.93C338.526 89.3113 338.716 89.7807 338.716 90.338C338.716 90.8953 338.526 91.3647 338.144 91.746C337.778 92.1273 337.286 92.318 336.67 92.318C336.054 92.318 335.556 92.1273 335.174 91.746C334.808 91.3647 334.624 90.8953 334.624 90.338ZM338.54 103.978C338.379 104.007 338.137 104.044 337.814 104.088C337.506 104.147 337.191 104.176 336.868 104.176C336.546 104.176 336.252 104.154 335.988 104.11C335.739 104.066 335.526 103.978 335.35 103.846C335.174 103.714 335.035 103.538 334.932 103.318C334.844 103.083 334.8 102.783 334.8 102.416V93.462C334.962 93.4327 335.196 93.396 335.504 93.352C335.827 93.2933 336.15 93.264 336.472 93.264C336.795 93.264 337.081 93.286 337.33 93.33C337.594 93.374 337.814 93.462 337.99 93.594C338.166 93.726 338.298 93.9093 338.386 94.144C338.489 94.364 338.54 94.6573 338.54 95.024V103.978ZM350.997 97.224C350.997 96.7693 350.865 96.4393 350.601 96.234C350.352 96.014 350.007 95.904 349.567 95.904C349.274 95.904 348.981 95.9407 348.687 96.014C348.409 96.0873 348.167 96.1973 347.961 96.344V103.978C347.815 104.022 347.58 104.066 347.257 104.11C346.949 104.154 346.627 104.176 346.289 104.176C345.967 104.176 345.673 104.154 345.409 104.11C345.16 104.066 344.947 103.978 344.771 103.846C344.595 103.714 344.456 103.538 344.353 103.318C344.265 103.083 344.221 102.783 344.221 102.416V95.816C344.221 95.42 344.302 95.0973 344.463 94.848C344.639 94.5987 344.874 94.3713 345.167 94.166C345.666 93.814 346.289 93.528 347.037 93.308C347.8 93.088 348.643 92.978 349.567 92.978C351.225 92.978 352.501 93.3447 353.395 94.078C354.29 94.7967 354.737 95.8013 354.737 97.092V103.978C354.591 104.022 354.356 104.066 354.033 104.11C353.725 104.154 353.403 104.176 353.065 104.176C352.743 104.176 352.449 104.154 352.185 104.11C351.936 104.066 351.723 103.978 351.547 103.846C351.371 103.714 351.232 103.538 351.129 103.318C351.041 103.083 350.997 102.783 350.997 102.416V97.224ZM365.562 92.978C366.398 92.978 367.153 93.088 367.828 93.308C368.517 93.5133 369.096 93.7847 369.566 94.122C369.859 94.3273 370.086 94.5547 370.248 94.804C370.424 95.0533 370.512 95.376 370.512 95.772V103.472C370.512 104.249 370.365 104.917 370.072 105.474C369.778 106.046 369.375 106.515 368.862 106.882C368.363 107.263 367.769 107.542 367.08 107.718C366.405 107.894 365.679 107.982 364.902 107.982C363.567 107.982 362.518 107.799 361.756 107.432C360.993 107.08 360.612 106.501 360.612 105.694C360.612 105.357 360.678 105.056 360.81 104.792C360.956 104.543 361.118 104.352 361.294 104.22C361.719 104.455 362.196 104.653 362.724 104.814C363.266 104.975 363.824 105.056 364.396 105.056C365.188 105.056 365.818 104.924 366.288 104.66C366.757 104.396 366.992 103.971 366.992 103.384V103.032C366.39 103.296 365.657 103.428 364.792 103.428C364.132 103.428 363.501 103.333 362.9 103.142C362.313 102.937 361.792 102.629 361.338 102.218C360.898 101.793 360.538 101.25 360.26 100.59C359.996 99.93 359.864 99.1453 359.864 98.236C359.864 97.3413 360.003 96.564 360.282 95.904C360.575 95.244 360.971 94.7013 361.47 94.276C361.983 93.836 362.584 93.5133 363.274 93.308C363.978 93.088 364.74 92.978 365.562 92.978ZM366.926 96.168C366.823 96.1093 366.669 96.0507 366.464 95.992C366.273 95.9333 366.031 95.904 365.738 95.904C365.019 95.904 364.476 96.1093 364.11 96.52C363.758 96.916 363.582 97.488 363.582 98.236C363.582 99.0867 363.758 99.7027 364.11 100.084C364.476 100.451 364.938 100.634 365.496 100.634C366.097 100.634 366.574 100.495 366.926 100.216V96.168ZM380.288 90.294C381.124 90.294 381.865 90.404 382.51 90.624C383.155 90.8293 383.705 91.1153 384.16 91.482C384.615 91.8487 384.959 92.2813 385.194 92.78C385.429 93.2787 385.546 93.814 385.546 94.386C385.546 95.926 384.673 97.3927 382.928 98.786L380.046 101.096H385.326C385.414 101.257 385.495 101.463 385.568 101.712C385.656 101.961 385.7 102.233 385.7 102.526C385.7 103.054 385.583 103.435 385.348 103.67C385.113 103.89 384.805 104 384.424 104H376.79C376.467 103.78 376.211 103.501 376.02 103.164C375.844 102.812 375.756 102.401 375.756 101.932C375.756 101.433 375.859 101.015 376.064 100.678C376.269 100.326 376.497 100.047 376.746 99.842L379.782 97.246C380.163 96.9233 380.479 96.6373 380.728 96.388C380.977 96.124 381.175 95.8893 381.322 95.684C381.483 95.4787 381.593 95.288 381.652 95.112C381.725 94.936 381.762 94.7673 381.762 94.606C381.762 94.1953 381.579 93.8727 381.212 93.638C380.86 93.4033 380.42 93.286 379.892 93.286C379.305 93.286 378.777 93.3813 378.308 93.572C377.853 93.748 377.472 93.9387 377.164 94.144C376.915 93.968 376.709 93.748 376.548 93.484C376.387 93.22 376.306 92.912 376.306 92.56C376.306 91.7973 376.665 91.2327 377.384 90.866C378.103 90.4847 379.071 90.294 380.288 90.294ZM390.371 102.218C390.371 101.602 390.562 101.089 390.943 100.678C391.325 100.267 391.845 100.062 392.505 100.062C393.165 100.062 393.686 100.267 394.067 100.678C394.449 101.089 394.639 101.602 394.639 102.218C394.639 102.834 394.449 103.347 394.067 103.758C393.686 104.169 393.165 104.374 392.505 104.374C391.845 104.374 391.325 104.169 390.943 103.758C390.562 103.347 390.371 102.834 390.371 102.218ZM406.972 97.312C406.972 96.0213 406.781 95.024 406.4 94.32C406.033 93.616 405.505 93.264 404.816 93.264C404.127 93.264 403.599 93.616 403.232 94.32C402.88 95.024 402.704 96.0213 402.704 97.312C402.704 98.6027 402.88 99.6073 403.232 100.326C403.599 101.03 404.127 101.382 404.816 101.382C405.505 101.382 406.033 101.03 406.4 100.326C406.781 99.6073 406.972 98.6027 406.972 97.312ZM410.734 97.312C410.734 98.4413 410.587 99.446 410.294 100.326C410.001 101.206 409.59 101.947 409.062 102.548C408.549 103.135 407.925 103.582 407.192 103.89C406.473 104.198 405.689 104.352 404.838 104.352C403.973 104.352 403.173 104.198 402.44 103.89C401.721 103.582 401.098 103.135 400.57 102.548C400.057 101.947 399.653 101.206 399.36 100.326C399.081 99.446 398.942 98.4413 398.942 97.312C398.942 96.1827 399.081 95.1853 399.36 94.32C399.653 93.44 400.057 92.7067 400.57 92.12C401.098 91.5187 401.721 91.064 402.44 90.756C403.173 90.448 403.973 90.294 404.838 90.294C405.689 90.294 406.473 90.448 407.192 90.756C407.925 91.064 408.549 91.5187 409.062 92.12C409.59 92.7067 410.001 93.44 410.294 94.32C410.587 95.1853 410.734 96.1827 410.734 97.312Z" fill="#676A6F"/>
<path d="M137.978 0.799805C139.589 0.799805 140.967 1.35482 142.113 2.46484C143.259 3.57487 143.832 4.93555 143.832 6.54688C143.832 8.1224 143.259 9.48307 142.113 10.6289C140.967 11.7747 139.589 12.3477 137.978 12.3477C136.474 12.3477 135.149 11.7747 134.003 10.6289C132.857 9.44727 132.284 8.08659 132.284 6.54688C132.284 5.04297 132.857 3.7181 134.003 2.57227C135.149 1.39062 136.474 0.799805 137.978 0.799805ZM133.144 21.5859H142.919V71H133.144V21.5859ZM199.659 59.4521V69.1201C194.754 70.9463 189.955 71.8594 185.265 71.8594C177.53 71.8594 171.354 69.5677 166.734 64.9844C162.151 60.401 159.859 54.2601 159.859 46.5615C159.859 38.7913 162.097 32.5251 166.573 27.7627C171.049 23.0003 176.939 20.6191 184.244 20.6191C186.786 20.6191 189.06 20.8698 191.065 21.3711C193.106 21.8366 195.613 22.7318 198.585 24.0566V34.4766C193.644 31.3255 189.06 29.75 184.835 29.75C180.431 29.75 176.814 31.3076 173.985 34.4229C171.157 37.5023 169.742 41.4411 169.742 46.2393C169.742 51.2881 171.264 55.2985 174.308 58.2705C177.387 61.2425 181.523 62.7285 186.715 62.7285C190.475 62.7285 194.789 61.6364 199.659 59.4521Z" fill="#676A6F"/>
<rect x="36" y="49" width="30" height="45" rx="15" fill="#EA4747"/>
<path fill-rule="evenodd" clip-rule="evenodd" d="M50 0C77.6142 0 100 22.3858 100 50C99.6996 50.6729 99.402 51.3396 99.1071 52H77.2034C78.0323 50.1447 78.8871 48.2307 79.7687 46.2563C77.9261 31.4546 65.3007 20 50 20C33.4315 20 20 33.4315 20 50C20 66.5685 33.4315 80 50 80C54.7937 80 59.3098 80.9021 63.4129 82.6433C64.8607 79.4794 66.463 75.9444 68.2404 72H90.1666C85.5992 82.1895 81.9485 90.2629 79.0056 96.5906C78.4253 97.8383 77.8725 99.0182 77.3457 100.133C67.4343 121.106 66.6985 119.063 64.4877 112.926C63.0675 108.984 61.0386 103.351 55.5774 101.045C55.3095 100.932 55.0334 100.827 54.7487 100.73C53.3774 100.265 51.807 100 50 100C22.3858 100 0 77.6142 0 50C0 22.3858 22.3858 0 50 0Z" fill="#676A6F"/>
<circle cx="51" cy="35" r="10" fill="#EA4747"/>
</svg>
